<?xml version="1.0" encoding="iso-8859-1"?>
<!-- Uploaded to: SVG Repo, www.svgrepo.com, Generator: SVG Repo Mixer Tools -->
<svg fill="#000000" height="800px" width="800px" version="1.1" id="Layer_1" xmlns="http://www.w3.org/2000/svg" xmlns:xlink="http://www.w3.org/1999/xlink" 
	 viewBox="0 0 503.607 503.607" xml:space="preserve">
<g>
	<g>
		<g>
			<path d="M92.914,53.248c0.067,0.185,0.109,0.369,0.193,0.554c0.042,0.101,0.059,0.21,0.109,0.311l24.291,48.59v48.38h41.967
				v-16.787c0-4.633,3.752-8.393,8.393-8.393c4.642,0,8.393,3.76,8.393,8.393v16.787h25.18v-16.787c0-4.633,3.752-8.393,8.393-8.393
				c4.642,0,8.393,3.76,8.393,8.393v16.787h25.18v-16.787c0-4.633,3.752-8.393,8.393-8.393c4.642,0,8.394,3.76,8.394,8.393v16.787
				h25.18v-16.787c0-4.633,3.752-8.393,8.393-8.393c4.642,0,8.393,3.76,8.393,8.393v16.787h25.18v-16.787
				c0-4.633,3.752-8.393,8.393-8.393c4.642,0,8.393,3.76,8.393,8.393v16.787h41.967v-48.38l24.299-48.59
				c0.05-0.101,0.059-0.21,0.109-0.311c0.076-0.185,0.126-0.369,0.193-0.554c0.311-0.839,0.487-1.704,0.52-2.585
				c0-0.101,0.059-0.193,0.059-0.302V8.393c0-4.633-3.752-8.393-8.393-8.393H369.31c-4.642,0-8.393,3.76-8.393,8.393v33.574h-16.787
				V8.393c0-4.633-3.752-8.393-8.393-8.393h-33.574c-4.642,0-8.393,3.76-8.393,8.393v33.574h-16.787V8.393
				c0-4.633-3.752-8.393-8.393-8.393h-33.574c-4.642,0-8.393,3.76-8.393,8.393v33.574h-16.787V8.393
				c0-4.633-3.752-8.393-8.393-8.393h-33.574c-4.642,0-8.393,3.76-8.393,8.393v33.574h-16.787V8.393
				c0-4.633-3.752-8.393-8.393-8.393H100.72c-4.642,0-8.393,3.76-8.393,8.393v41.967c0,0.109,0.059,0.201,0.067,0.311
				C92.419,51.544,92.603,52.409,92.914,53.248z M134.293,58.754h33.574h33.574h33.574h33.574h33.574h33.574h33.574h19.993
				l-16.787,33.574H131.087L114.3,58.754H134.293z"/>
			<path d="M495.213,360.915h-8.393v-16.787c0-4.633-3.752-8.393-8.393-8.393s-8.393,3.76-8.393,8.393v16.787h-16.787v-16.787
				c0-4.633-3.752-8.393-8.393-8.393c-4.642,0-8.393,3.76-8.393,8.393v16.787h-16.787v-16.787c0-4.633-3.752-8.393-8.393-8.393
				s-8.393,3.76-8.393,8.393v16.787h-16.787V167.865h-268.59v193.049h-16.787v-16.787c0-4.633-3.752-8.393-8.393-8.393
				s-8.393,3.76-8.393,8.393v16.787H67.148v-16.787c0-4.633-3.752-8.393-8.393-8.393c-4.642,0-8.393,3.76-8.393,8.393v16.787H33.574
				v-16.787c0-4.633-3.752-8.393-8.393-8.393c-4.642,0-8.393,3.76-8.393,8.393v16.787H8.393c-4.642,0-8.393,3.76-8.393,8.393V495.21
				c0,4.642,3.752,8.393,8.393,8.393h117.508h92.328v-92.328c0-18.508,15.058-33.574,33.574-33.574s33.574,15.066,33.574,33.574
				v92.328h92.328h117.508c4.642,0,8.393-3.752,8.393-8.393V369.308C503.607,364.675,499.855,360.915,495.213,360.915z
				 M159.475,193.046c4.633,0,8.393,3.76,8.393,8.393c0,4.642-3.76,8.393-8.393,8.393s-8.393-3.752-8.393-8.393
				C151.082,196.806,154.842,193.046,159.475,193.046z M201.443,369.308c0,4.642-3.752,8.393-8.393,8.393h-33.574
				c-4.642,0-8.393-3.752-8.393-8.393v-50.361c0-13.883,11.298-25.18,25.18-25.18c13.883,0,25.18,11.298,25.18,25.18V369.308z
				 M193.049,209.833c-4.642,0-8.393-3.752-8.393-8.393c0-4.633,3.752-8.393,8.393-8.393h33.574c4.642,0,8.393,3.76,8.393,8.393
				c0,4.642-3.752,8.393-8.393,8.393H193.049z M235.016,327.341c-4.642,0-8.393-3.752-8.393-8.393v-50.361
				c0-13.883,11.298-25.18,25.18-25.18c13.883,0,25.18,11.298,25.18,25.18v50.361c0,4.642-3.752,8.393-8.393,8.393H235.016z
				 M310.557,360.915h-33.574c-4.642,0-8.393-3.752-8.393-8.393c0-4.633,3.752-8.393,8.393-8.393h33.574
				c4.642,0,8.393,3.76,8.393,8.393C318.951,357.163,315.199,360.915,310.557,360.915z M344.131,360.915
				c-4.633,0-8.393-3.752-8.393-8.393c0-4.633,3.76-8.393,8.393-8.393c4.633,0,8.393,3.76,8.393,8.393
				C352.525,357.163,348.764,360.915,344.131,360.915z M352.525,260.193c0,4.642-3.752,8.393-8.393,8.393h-33.574
				c-4.642,0-8.393-3.752-8.393-8.393v-50.361c0-13.883,11.298-25.18,25.18-25.18s25.18,11.298,25.18,25.18V260.193z"/>
			<path d="M251.803,394.492c-9.258,0-16.787,7.529-16.787,16.787v92.328h33.574v-92.328
				C268.59,402.021,261.061,394.492,251.803,394.492z"/>
			<path d="M176.262,310.557c-4.633,0-8.393,3.769-8.393,8.393v41.967h16.787v-41.967
				C184.656,314.326,180.895,310.557,176.262,310.557z"/>
			<path d="M251.803,260.197c-4.633,0-8.393,3.769-8.393,8.393v41.967h16.787V268.59
				C260.197,263.965,256.436,260.197,251.803,260.197z"/>
			<path d="M327.344,201.443c-4.633,0-8.393,3.769-8.393,8.393v41.967h16.787v-41.967
				C335.738,205.211,331.977,201.443,327.344,201.443z"/>
		</g>
	</g>
</g>
</svg>