<?xml version="1.0" standalone="no"?>
<!DOCTYPE svg PUBLIC "-//W3C//DTD SVG 20010904//EN"
 "http://www.w3.org/TR/2001/REC-SVG-20010904/DTD/svg10.dtd">
<svg version="1.0" xmlns="http://www.w3.org/2000/svg"
 width="1280.000000pt" height="776.000000pt" viewBox="0 0 1280.000000 776.000000"
 preserveAspectRatio="xMidYMid meet">
<metadata>
Created by potrace 1.15, written by Peter Selinger 2001-2017
</metadata>
<g transform="translate(0.000000,776.000000) scale(0.100000,-0.100000)"
fill="#000000" stroke="none">
<path d="M7954 7749 c-51 -15 -125 -71 -160 -122 -18 -26 -44 -82 -59 -126
-15 -46 -39 -94 -58 -116 -31 -36 -36 -38 -99 -39 -55 -1 -72 -6 -108 -31 -50
-34 -108 -102 -173 -202 -86 -133 -230 -267 -342 -319 -117 -54 -435 -444
-762 -934 -288 -433 -424 -673 -539 -957 -27 -68 -51 -123 -54 -123 -3 0 -34
76 -69 168 -145 381 -263 623 -380 777 -95 126 -305 318 -546 499 -109 82
-153 106 -198 106 -39 0 -55 -15 -119 -115 -52 -81 -146 -203 -277 -360 -165
-198 -384 -533 -590 -905 -292 -525 -494 -783 -866 -1105 -292 -253 -453 -402
-716 -664 -368 -369 -472 -497 -647 -796 -84 -144 -178 -278 -282 -400 -144
-170 -205 -266 -217 -341 -9 -60 -50 -139 -110 -212 -205 -251 -396 -543 -520
-797 -51 -105 -58 -126 -58 -180 1 -102 76 -218 123 -188 25 15 157 -20 379
-102 315 -117 308 -115 753 -125 381 -9 2729 -36 2970 -34 251 1 615 76 1155
239 238 71 993 322 1071 355 83 36 175 105 309 231 215 202 275 240 456 289
203 55 334 146 522 360 239 272 244 277 312 311 99 49 133 42 374 -74 256
-124 319 -145 611 -202 310 -61 464 -108 965 -295 721 -268 809 -288 1273
-277 344 8 533 33 922 122 323 74 410 112 446 194 16 37 18 38 48 30 47 -14
64 -11 87 12 66 66 -57 320 -256 529 -170 179 -309 358 -400 520 -164 289
-332 482 -1157 1334 -318 329 -404 426 -434 494 -47 106 -245 415 -539 843
-396 575 -634 899 -1251 1699 -230 300 -442 579 -469 620 -74 112 -145 257
-145 299 0 20 -9 51 -20 69 -30 49 -82 63 -156 41z m1960 -3196 c70 -83 201
-280 265 -398 l32 -60 -51 55 c-115 122 -273 336 -351 475 l-33 60 33 -24 c18
-13 65 -62 105 -108z m1627 -1827 c54 -23 119 -100 119 -140 0 -31 -72 11
-132 76 -32 35 -58 66 -58 70 0 12 34 9 71 -6z"/>
</g>
</svg>
