<?xml version="1.0" standalone="no"?>
<!DOCTYPE svg PUBLIC "-//W3C//DTD SVG 20010904//EN"
 "http://www.w3.org/TR/2001/REC-SVG-20010904/DTD/svg10.dtd">
<svg version="1.0" xmlns="http://www.w3.org/2000/svg"
 width="1122.000000pt" height="1280.000000pt" viewBox="0 0 1122.000000 1280.000000"
 preserveAspectRatio="xMidYMid meet">
<metadata>
Created by potrace 1.15, written by Peter Selinger 2001-2017
</metadata>
<g transform="translate(0.000000,1280.000000) scale(0.100000,-0.100000)"
fill="#000000" stroke="none">
<path d="M6925 12785 c-27 -7 -86 -30 -130 -50 -193 -89 -356 -139 -605 -186
-222 -41 -433 -91 -516 -120 -113 -41 -200 -105 -326 -241 -105 -112 -165
-157 -241 -179 -18 -5 -131 -32 -252 -59 -328 -74 -398 -104 -429 -181 -28
-68 -17 -197 30 -389 32 -130 69 -213 128 -288 50 -63 153 -270 158 -317 3
-29 1 -30 -97 -68 -531 -202 -798 -244 -922 -147 -78 61 -102 141 -112 376 -6
130 -13 188 -24 210 -23 42 -163 177 -227 216 -80 50 -133 68 -198 68 -145 0
-200 -120 -136 -295 69 -188 76 -213 86 -325 22 -249 63 -357 182 -475 148
-148 353 -214 624 -202 237 10 448 69 740 208 79 38 156 72 169 75 23 6 25 4
18 -17 -4 -13 -27 -62 -50 -109 -58 -116 -92 -214 -103 -299 -12 -84 -38 -142
-98 -215 -105 -129 -114 -205 -29 -245 25 -11 49 -21 55 -21 14 0 12 -16 -3
-28 -16 -14 -194 -73 -302 -102 -446 -117 -672 -120 -878 -13 -53 27 -98 63
-172 138 -149 148 -236 283 -442 680 -174 336 -236 429 -428 640 -110 121
-162 190 -206 276 -28 54 -33 75 -34 135 0 93 22 126 135 199 195 126 290 285
290 487 0 157 -57 284 -181 403 -62 59 -85 75 -109 75 -41 0 -51 -24 -59 -149
-8 -117 -16 -139 -64 -174 -30 -24 -110 -67 -122 -67 -3 0 -5 11 -5 24 0 109
-87 194 -266 262 -123 46 -246 68 -389 68 -142 1 -202 -12 -304 -64 -67 -33
-94 -61 -85 -84 4 -10 63 -45 132 -78 68 -33 140 -74 159 -91 41 -36 104 -139
138 -227 29 -74 31 -100 9 -100 -16 0 -37 20 -150 143 -34 36 -73 71 -88 77
-71 26 -249 -6 -422 -78 -167 -69 -278 -174 -253 -239 14 -39 63 -54 201 -64
123 -8 178 -22 178 -48 0 -14 74 -82 132 -122 32 -22 58 -42 58 -44 0 -6 -52
4 -135 26 -38 11 -81 19 -96 19 -36 0 -88 -37 -192 -137 -96 -93 -123 -108
-212 -118 -121 -15 -127 -73 -18 -176 66 -63 124 -101 261 -168 138 -69 184
-85 217 -77 13 3 58 35 100 71 42 36 83 65 90 65 7 0 31 -20 54 -45 48 -52 53
-92 22 -154 -47 -91 -158 -157 -289 -172 -148 -17 -207 -50 -219 -122 -14 -87
81 -192 256 -281 61 -31 114 -64 119 -73 12 -20 3 -52 -31 -120 -90 -177 -86
-406 7 -451 38 -19 64 -10 128 43 30 24 81 56 113 71 73 32 181 43 210 21 17
-13 18 -18 6 -40 -8 -14 -49 -68 -92 -119 -88 -104 -146 -196 -155 -246 -8
-41 17 -72 56 -72 29 0 86 -36 226 -142 49 -37 130 -89 181 -115 51 -26 93
-53 93 -59 0 -6 -29 -73 -65 -149 -132 -283 -110 -320 250 -425 138 -40 145
-49 92 -113 -79 -97 -97 -183 -55 -258 38 -67 143 -119 243 -119 149 0 245
-83 245 -212 0 -83 -35 -145 -136 -241 -73 -69 -134 -147 -134 -170 0 -22 37
-37 91 -37 56 0 59 -1 59 -25 0 -13 -9 -48 -21 -77 -41 -106 -238 -495 -284
-563 -51 -74 -62 -87 -168 -211 -92 -106 -158 -207 -260 -401 -159 -302 -325
-508 -455 -565 -70 -31 -94 -14 -107 77 -15 105 -89 195 -208 255 -81 40 -152
42 -197 4 l-31 -27 -82 39 c-80 37 -85 38 -197 39 -87 0 -128 -5 -169 -19 -54
-19 -131 -78 -131 -101 0 -20 32 -41 95 -60 133 -40 205 -96 205 -160 0 -42
-33 -83 -110 -135 -79 -54 -143 -130 -189 -225 -50 -102 -71 -190 -71 -293 0
-127 13 -133 180 -87 63 17 162 20 191 5 25 -14 24 -37 -3 -80 -77 -127 -91
-194 -60 -297 37 -121 176 -289 259 -312 65 -18 90 3 152 127 68 135 126 185
204 174 39 -6 119 -83 165 -162 26 -42 48 -68 66 -75 62 -22 198 47 298 153
68 71 104 132 118 199 6 28 18 58 27 65 11 9 64 14 167 18 123 4 157 8 179 23
17 11 46 55 76 115 27 54 56 104 65 111 14 11 27 3 94 -60 104 -98 174 -133
267 -133 137 -1 220 79 261 251 13 54 15 99 10 221 -3 83 -2 152 3 152 5 0 31
-18 59 -40 57 -46 126 -79 161 -80 39 0 107 38 135 75 69 90 95 201 105 438 4
103 12 192 17 197 7 7 35 -8 84 -45 41 -31 96 -62 124 -70 69 -21 237 -19 300
3 89 31 90 84 6 228 -86 147 -76 237 28 251 62 8 131 -21 244 -103 121 -89
234 -152 378 -212 213 -88 420 -149 623 -183 67 -11 124 -22 129 -25 33 -20
-23 -57 -147 -97 -238 -77 -538 -130 -806 -142 -220 -9 -353 -58 -464 -170
-115 -116 -166 -257 -167 -460 -1 -203 46 -390 156 -620 104 -216 211 -374
415 -610 136 -157 212 -263 251 -348 102 -226 32 -399 -291 -712 -148 -143
-270 -236 -399 -304 -111 -58 -189 -81 -277 -81 -89 0 -133 21 -197 94 -91
104 -218 149 -416 149 -228 -1 -397 -71 -451 -188 -41 -89 -18 -109 108 -92
126 16 168 -10 180 -113 7 -64 36 -100 110 -142 67 -38 71 -44 29 -52 -46 -9
-78 -1 -161 42 -66 34 -75 36 -165 36 -154 -1 -263 -57 -288 -148 -6 -21 -38
-83 -71 -139 -93 -158 -109 -221 -70 -271 27 -34 73 -34 154 -1 33 14 69 25
81 25 11 0 52 -20 90 -44 74 -48 120 -63 227 -72 51 -4 75 -12 95 -29 26 -22
26 -26 27 -141 1 -101 5 -125 23 -160 31 -60 75 -94 123 -94 34 0 48 8 110 65
82 75 110 92 170 101 24 4 69 18 99 31 113 51 124 53 157 34 16 -10 55 -48 88
-85 32 -37 77 -78 99 -91 88 -51 178 -41 253 28 82 76 113 165 113 334 0 75 4
114 12 119 22 14 63 -53 107 -173 112 -304 180 -307 397 -16 47 62 93 117 102
122 14 8 34 2 84 -24 187 -98 260 -34 348 310 34 133 52 172 87 188 22 10 28
8 43 -11 21 -26 40 -104 40 -167 0 -99 81 -235 140 -235 94 0 220 310 220 543
0 110 8 129 44 107 13 -8 45 -28 71 -44 67 -41 111 -55 181 -56 47 0 69 5 95
23 48 32 58 67 35 125 -61 154 -17 285 149 447 93 91 105 106 120 159 24 83
17 193 -18 269 -39 87 -121 166 -230 223 -166 89 -200 145 -139 230 39 54 108
114 131 114 10 0 61 -33 114 -74 126 -96 217 -154 412 -261 220 -121 345 -206
435 -295 42 -42 97 -91 124 -109 75 -52 215 -113 411 -180 380 -131 524 -199
601 -284 83 -93 105 -222 65 -380 -25 -97 -42 -129 -105 -195 -84 -91 -292
-212 -362 -212 -40 0 -77 40 -128 137 -50 95 -113 163 -187 203 -52 27 -73 33
-128 33 -74 1 -122 -17 -209 -76 -29 -20 -79 -44 -112 -53 -103 -29 -250 -172
-250 -244 0 -52 73 -90 171 -90 79 0 139 -55 139 -129 0 -28 -8 -42 -46 -75
-109 -97 -139 -132 -163 -191 -13 -33 -52 -112 -87 -175 -80 -148 -97 -202
-92 -290 5 -85 30 -120 88 -120 43 0 63 13 158 102 78 73 102 82 150 51 23
-16 48 -18 185 -16 89 2 167 -2 177 -7 10 -5 38 -45 63 -88 85 -147 171 -220
245 -209 45 8 68 30 103 100 17 33 57 85 93 120 35 34 73 81 85 104 48 96 122
15 137 -149 8 -91 20 -114 56 -105 60 16 299 252 343 341 35 70 32 102 -15
172 -40 59 -52 104 -26 104 18 0 58 -31 141 -110 39 -37 90 -77 114 -90 111
-56 211 18 211 157 0 17 4 34 10 38 5 3 32 -6 61 -20 34 -18 60 -25 76 -20
100 25 260 209 299 342 22 77 39 92 109 99 152 17 208 106 139 220 -57 94 -64
109 -64 146 0 48 40 139 73 165 19 15 52 23 132 31 120 12 170 32 199 81 24
41 10 81 -27 81 -35 0 -72 33 -90 82 -33 87 -71 379 -51 390 5 3 45 -10 89
-30 88 -39 172 -53 185 -32 14 22 -1 81 -40 167 -45 96 -82 152 -157 236 -124
139 -176 244 -187 385 -14 166 -56 236 -174 294 -64 31 -72 33 -177 32 -91 0
-120 -4 -165 -23 -144 -60 -156 -63 -225 -64 -91 0 -161 16 -262 63 -215 100
-424 300 -525 503 -57 114 -69 162 -84 327 -13 150 -15 158 -54 232 -22 43
-40 81 -40 84 0 11 25 -3 101 -58 42 -30 170 -102 285 -161 302 -154 342 -190
449 -405 72 -143 138 -218 239 -268 63 -30 83 -35 153 -37 77 -2 113 9 113 34
0 5 -28 40 -63 78 -77 84 -94 129 -76 205 16 69 64 175 83 182 9 3 41 -13 78
-39 163 -116 420 -216 595 -232 84 -7 157 4 161 26 2 9 -27 54 -64 100 -83
105 -114 167 -114 235 0 67 29 111 94 143 126 63 304 22 459 -103 106 -87 164
-71 186 51 16 85 -10 186 -77 292 -53 85 -51 92 52 180 49 41 109 102 134 136
152 206 232 504 219 817 -7 170 -26 262 -101 488 -30 91 -60 199 -66 241 -18
109 -1 153 94 256 88 97 121 143 175 251 86 170 136 365 129 493 -3 59 -8 73
-30 96 -25 25 -28 25 -60 13 -50 -21 -191 -168 -221 -231 -26 -55 -89 -135
-232 -294 -201 -224 -258 -339 -272 -555 -10 -139 -12 -141 -130 -82 -238 120
-378 143 -833 140 -275 -2 -339 0 -417 15 -166 31 -312 87 -375 142 -43 37
-78 95 -78 127 0 64 79 161 159 196 44 19 151 20 526 8 199 -6 299 -6 380 3
293 33 472 102 603 232 77 77 114 141 172 305 87 244 154 356 258 428 22 15
91 50 154 78 62 27 128 61 146 75 117 88 60 159 -137 170 -210 12 -379 -50
-532 -195 -94 -88 -152 -168 -256 -352 -132 -231 -218 -308 -380 -340 -44 -9
-130 -11 -295 -6 -704 19 -790 19 -888 2 -102 -18 -195 -56 -247 -102 -47 -42
-96 -130 -139 -251 -34 -95 -39 -104 -45 -79 -10 37 6 208 24 268 22 70 59
127 115 180 122 114 299 158 639 158 501 0 751 65 971 250 61 51 101 93 345
365 165 183 231 229 427 295 187 63 335 162 396 266 33 56 37 140 8 161 -26
19 -49 16 -144 -18 -140 -51 -204 -66 -500 -120 -190 -34 -245 -66 -454 -267
-223 -214 -301 -278 -390 -323 -153 -75 -236 -85 -831 -98 -307 -7 -411 -12
-447 -24 -26 -8 -87 -40 -135 -71 -78 -49 -123 -68 -123 -51 0 23 53 100 102
147 149 144 440 229 963 283 186 19 249 29 348 55 205 54 404 160 562 299 105
92 147 111 580 251 72 23 163 58 204 76 152 70 178 115 86 146 -101 34 -592
17 -760 -27 -142 -37 -219 -75 -435 -214 -228 -147 -332 -197 -472 -226 -59
-13 -135 -16 -408 -13 -369 3 -336 7 -507 -64 -29 -12 -56 -19 -59 -15 -11 11
55 82 130 141 108 84 262 179 411 251 196 96 269 120 545 185 788 184 1346
461 1678 833 286 320 415 713 399 1217 -6 198 -21 291 -69 435 -184 548 -779
892 -1488 861 -223 -9 -389 -42 -580 -113 -487 -182 -798 -526 -886 -978 -8
-44 -19 -181 -25 -305 -11 -245 -29 -358 -75 -461 -74 -165 -193 -170 -375
-16 -133 113 -167 128 -189 87 -19 -36 -13 -237 10 -311 39 -129 134 -236 248
-279 110 -42 195 -35 330 27 92 42 119 44 163 11 19 -14 96 -58 172 -99 187
-99 227 -148 195 -244 -20 -59 -64 -85 -147 -85 -85 0 -148 29 -229 103 -101
93 -162 111 -201 61 -31 -40 -29 -148 3 -212 66 -130 240 -216 441 -216 165 0
294 44 389 134 229 216 183 613 -112 967 -28 33 -60 76 -72 95 -42 69 -27 65
112 -28 116 -79 240 -144 386 -203 159 -63 282 -166 313 -258 17 -53 6 -149
-24 -209 -14 -28 -54 -86 -90 -130 -73 -89 -91 -120 -81 -135 9 -15 68 -5 167
30 389 135 574 418 448 686 -62 133 -157 219 -363 330 -61 33 -113 65 -115 71
-3 7 46 13 150 18 175 8 248 18 335 45 262 84 445 268 481 484 23 137 -20 259
-133 373 -99 100 -146 117 -321 118 -150 1 -195 -13 -222 -70 -35 -73 7 -110
144 -124 98 -10 148 -33 181 -80 56 -83 -2 -204 -131 -272 -60 -32 -188 -31
-272 2 -208 80 -345 282 -305 449 14 58 69 148 126 204 116 115 287 153 475
106 264 -67 510 -279 639 -552 57 -120 81 -220 87 -368 14 -325 -71 -630 -237
-850 -74 -99 -225 -238 -347 -319 -114 -77 -364 -203 -523 -265 -207 -81 -513
-177 -795 -250 -262 -67 -372 -106 -540 -190 -311 -156 -560 -375 -754 -665
-357 -532 -423 -1174 -175 -1700 105 -222 315 -468 513 -599 325 -215 735
-316 1431 -351 559 -28 716 -50 885 -130 100 -46 166 -104 201 -176 82 -169
-36 -497 -248 -689 -368 -334 -1012 -362 -1613 -70 -289 140 -541 354 -729
620 -73 102 -142 182 -430 498 -297 326 -432 496 -533 669 -35 60 -94 157
-133 216 -38 58 -70 112 -70 119 0 7 14 23 31 35 63 46 74 113 38 221 -38 114
-132 254 -284 422 -174 192 -255 299 -255 337 0 31 14 20 64 -53 178 -259 535
-498 773 -516 70 -6 73 -5 102 25 37 36 37 45 14 207 -24 172 -25 699 -1 835
38 214 100 368 181 449 57 58 80 68 194 86 232 38 465 159 544 283 58 91 27
148 -92 171 -170 33 -251 69 -320 141 -133 140 -195 380 -230 886 -10 149 -10
187 1 213 16 39 27 45 115 61 156 28 261 61 373 120 133 69 202 144 202 218 0
40 -32 77 -97 114 -76 43 -154 117 -187 179 -16 29 -49 109 -72 177 -59 171
-111 258 -214 362 -83 84 -168 148 -300 224 -78 46 -110 73 -110 97 0 10 16
52 35 95 47 104 65 167 65 234 0 130 -101 187 -255 145z m-1351 -1825 c24 -30
44 -95 32 -107 -8 -8 -467 16 -535 27 -61 11 -81 24 -81 51 0 24 17 24 80 -1
70 -28 91 -25 130 15 19 19 38 35 43 35 5 0 27 -16 48 -35 22 -19 46 -35 55
-35 9 0 39 18 66 40 41 33 59 40 93 40 36 0 48 -5 69 -30z m-389 -464 c17 -13
17 -16 -9 -97 -16 -46 -32 -88 -36 -93 -10 -10 -120 153 -120 176 0 8 3 18 7
21 12 13 139 7 158 -7z m311 1 c9 -8 -65 -87 -81 -87 -12 0 -85 68 -85 80 0 5
8 11 18 14 24 7 140 2 148 -7z"/>
</g>
</svg>
