<?xml version="1.0" standalone="no"?>
<!DOCTYPE svg PUBLIC "-//W3C//DTD SVG 20010904//EN"
 "http://www.w3.org/TR/2001/REC-SVG-20010904/DTD/svg10.dtd">
<svg version="1.0" xmlns="http://www.w3.org/2000/svg"
 width="512.000000pt" height="512.000000pt" viewBox="0 0 512.000000 512.000000"
 preserveAspectRatio="xMidYMid meet">

<g transform="translate(0.000000,512.000000) scale(0.100000,-0.100000)"
fill="#000000" stroke="none">
<path d="M1291 4802 c-19 -9 -43 -29 -54 -43 -20 -28 -1224 -4218 -1234 -4296
-7 -57 26 -116 82 -143 40 -19 62 -20 571 -20 496 0 531 1 564 19 19 10 43 29
53 43 20 27 1224 4218 1234 4295 7 57 -26 116 -82 143 -40 19 -62 20 -571 20
-484 0 -532 -2 -563 -18z m864 -304 c-3 -13 -52 -183 -108 -378 l-102 -355
-234 -3 c-129 -1 -238 1 -242 5 -5 6 24 707 31 751 0 1 149 2 330 2 l330 0 -5
-22z m-316 -1105 c-10 -38 -58 -206 -107 -375 l-87 -308 -118 0 -119 0 6 63
c3 34 10 175 16 312 6 138 13 278 16 313 l6 62 203 0 204 0 -20 -67z m-713
-381 c-8 -162 -17 -296 -19 -298 -3 -3 -38 -4 -79 -2 l-75 3 91 320 c50 176
92 309 94 295 2 -14 -4 -157 -12 -318z m-32 -689 c-3 -49 -11 -215 -19 -371
-7 -156 -15 -285 -18 -288 -2 -2 -94 -3 -204 -2 l-200 3 106 372 106 373 117
0 118 0 -6 -87z m445 20 c-10 -38 -51 -182 -91 -320 -39 -139 -74 -251 -76
-248 -4 4 15 473 24 573 l6 62 78 0 79 0 -20 -67z m-496 -990 c3 -6 -28 -721
-33 -750 0 -2 -149 -3 -331 -3 -310 0 -330 1 -325 18 3 9 51 177 106 372 56
195 104 358 106 362 7 10 471 11 477 1z"/>
<path d="M2694 4800 c-55 -27 -88 -87 -81 -143 10 -78 1214 -4268 1234 -4296
11 -14 35 -34 54 -43 31 -16 79 -18 563 -18 509 0 531 1 571 20 56 27 89 86
82 143 -10 78 -1214 4268 -1234 4296 -11 14 -35 34 -54 43 -31 16 -79 18 -564
18 -511 0 -531 -1 -571 -20z m926 -282 c7 -44 36 -745 31 -751 -4 -4 -113 -6
-242 -5 l-234 3 -102 355 c-56 195 -105 365 -108 378 l-5 22 330 0 c181 0 330
-1 330 -2z m54 -1120 c3 -35 10 -175 16 -313 6 -137 13 -278 16 -312 l6 -63
-119 0 -118 0 -87 308 c-49 169 -97 337 -107 375 l-20 67 204 0 203 0 6 -62z
m405 -373 l88 -310 -75 -3 c-41 -2 -77 -1 -79 2 -5 5 -33 519 -32 596 0 25 3
40 5 35 2 -6 44 -150 93 -320z m-355 -687 c10 -124 28 -559 24 -563 -2 -3 -37
109 -76 248 -40 138 -81 282 -91 320 l-20 67 79 0 78 0 6 -72z m637 -301 l106
-372 -200 -3 c-110 -1 -202 0 -204 2 -3 3 -11 132 -18 288 -8 156 -16 322 -19
371 l-6 87 118 0 117 0 106 -373z m296 -1037 c56 -195 105 -365 108 -378 l5
-22 -330 0 c-181 0 -330 1 -330 3 -5 29 -36 744 -33 750 2 4 111 6 241 5 l237
-3 102 -355z"/>
<path d="M2479 3387 c-27 -18 -67 -85 -199 -327 l-165 -305 -3 -1170 c-2
-1126 -2 -1171 16 -1205 11 -20 37 -44 62 -57 42 -23 49 -23 369 -23 319 0
328 1 371 22 87 45 81 -62 78 1263 l-3 1170 -165 305 c-184 338 -193 350 -280
350 -32 0 -58 -7 -81 -23z m159 -586 c71 -137 72 -140 72 -215 l0 -76 -150 0
-150 0 0 76 c0 75 1 78 73 215 39 76 74 139 77 139 3 0 38 -63 78 -139z m72
-1396 l0 -805 -150 0 -150 0 0 805 0 805 150 0 150 0 0 -805z"/>
</g>
</svg>
