<?xml version="1.0" standalone="no"?>
<!DOCTYPE svg PUBLIC "-//W3C//DTD SVG 20010904//EN"
 "http://www.w3.org/TR/2001/REC-SVG-20010904/DTD/svg10.dtd">
<svg version="1.0" xmlns="http://www.w3.org/2000/svg"
 width="512.000000pt" height="512.000000pt" viewBox="0 0 512.000000 512.000000"
 preserveAspectRatio="xMidYMid meet">

<g transform="translate(0.000000,512.000000) scale(0.100000,-0.100000)"
fill="#000000" stroke="none">
<path d="M185 4695 c-25 -24 -25 -26 -25 -215 0 -189 0 -191 25 -215 20 -21
34 -25 80 -25 l55 0 0 -240 0 -240 -55 0 c-46 0 -60 -4 -80 -25 -25 -24 -25
-26 -25 -215 0 -189 0 -191 25 -215 20 -21 34 -25 80 -25 l55 0 0 -1415 0
-1416 25 -24 24 -25 2271 0 2271 0 24 25 25 24 0 228 c0 125 -5 269 -10 318
-68 613 -380 1131 -886 1471 -115 77 -320 179 -449 224 l-91 31 -12 147 c-6
81 -23 200 -36 264 -179 851 -895 1492 -1765 1578 -59 6 -398 10 -803 10
l-699 0 -24 -25z m1523 -146 c500 -54 951 -303 1257 -694 215 -275 346 -597
384 -947 17 -150 17 -151 -19 -144 -16 3 -43 9 -59 12 -44 8 -76 64 -85 149
-17 166 -74 360 -157 531 -206 424 -592 749 -1044 878 -208 59 -202 59 -962
63 l-703 4 0 80 0 79 645 0 c387 0 685 -4 743 -11z m-509 -524 c-89 -118 -164
-215 -168 -215 -3 0 -103 97 -221 215 l-215 215 383 0 382 0 -161 -215z m592
189 c145 -26 362 -101 438 -151 l24 -15 -119 -119 c-65 -65 -122 -119 -125
-119 -4 0 -66 80 -139 178 -74 97 -144 192 -158 210 -28 37 -30 37 79 16z
m-97 -259 c90 -121 164 -221 162 -222 -1 -1 -27 2 -57 8 -29 5 -176 12 -326
16 l-271 6 156 208 c86 115 160 208 164 207 4 -2 81 -102 172 -223z m-1029
-15 l180 -180 -183 0 -182 0 0 180 c0 99 1 180 3 180 1 0 83 -81 182 -180z
m1803 -207 c23 -114 42 -213 42 -220 0 -7 -46 10 -109 41 -60 30 -151 69 -201
87 l-91 32 142 143 c114 114 146 141 159 134 13 -7 28 -63 58 -217z m247 -78
c88 -112 163 -242 213 -366 69 -175 68 -177 -29 -84 -46 44 -109 100 -140 124
l-57 44 -36 181 c-20 100 -36 185 -36 189 0 16 21 -5 85 -88z m-1007 -66 c307
-33 587 -136 843 -308 118 -79 260 -201 334 -287 69 -80 145 -177 145 -186 0
-5 -41 -8 -90 -8 l-91 0 -122 123 c-269 271 -546 421 -917 493 -73 15 -183 18
-787 21 l-703 4 0 80 0 79 645 0 c388 0 685 -4 743 -11z m-768 -311 c0 -2
-104 -464 -229 -1028 l-229 -1025 -1 1028 -1 1027 230 0 c127 0 230 -1 230 -2z
m340 -508 l0 -510 -80 -160 c-44 -88 -80 -169 -80 -181 0 -35 20 -60 66 -80
24 -11 44 -23 44 -26 0 -4 -24 -54 -54 -112 -29 -58 -61 -128 -71 -155 -18
-47 -19 -48 -54 -42 -155 27 -149 32 -206 -194 -25 -96 -45 -185 -45 -196 0
-40 31 -64 104 -81 l69 -15 -7 -61 c-3 -33 -6 -136 -6 -228 l0 -169 -231 0
c-215 0 -230 1 -225 18 2 9 139 621 303 1360 l297 1342 88 0 88 0 0 -510z
m410 500 c72 -9 189 -30 197 -35 2 -1 -42 -201 -96 -444 l-98 -443 -59 -54
c-33 -29 -63 -53 -68 -54 -5 0 -35 12 -67 26 l-59 27 0 493 0 494 83 0 c45 0
121 -5 167 -10z m512 -151 c70 -35 202 -119 263 -168 49 -39 175 -162 175
-171 0 -3 -41 -14 -92 -24 -181 -34 -455 -141 -611 -237 -44 -27 -49 -28 -45
-11 3 11 38 168 79 350 l73 330 48 -19 c26 -10 76 -33 110 -50z m946 -490
c229 -25 438 -87 642 -190 559 -285 931 -824 999 -1451 6 -54 11 -172 11 -263
l0 -165 -99 0 -99 0 -556 794 c-305 436 -563 796 -571 800 -9 3 -189 6 -400 6
-350 0 -385 -2 -404 -17 -15 -13 -36 -67 -70 -178 -34 -114 -52 -159 -62 -157
-8 2 -193 82 -412 179 -458 203 -424 169 -272 283 270 203 597 330 935 363 81
8 267 6 358 -4z m-1196 -740 c299 -133 545 -243 547 -245 2 -2 -8 -46 -23 -98
l-28 -93 -526 234 c-290 129 -546 243 -570 253 l-42 19 42 86 c23 47 46 85 50
85 4 0 252 -108 550 -241z m1945 -601 c274 -391 500 -715 501 -720 2 -4 -41
-8 -96 -8 l-100 0 -436 634 c-240 348 -443 636 -452 640 -8 3 -98 6 -199 6
-159 0 -185 -2 -204 -17 -16 -14 -69 -173 -215 -638 l-193 -620 -77 -3 c-71
-3 -77 -1 -72 15 3 10 98 329 211 708 113 380 208 696 210 703 3 9 75 12 314
12 l309 0 499 -712z m-2454 437 c26 -11 47 -24 47 -30 0 -10 -80 -257 -86
-264 -2 -2 -37 4 -78 14 -49 10 -76 21 -76 30 0 20 130 277 139 273 3 -2 28
-12 54 -23z m2176 -599 c210 -305 381 -557 381 -560 0 -3 -300 -6 -666 -6
-629 0 -665 1 -660 18 3 9 80 256 171 547 91 292 167 536 170 543 3 8 35 12
114 12 l109 0 381 -554z m-1893 473 l72 -32 -35 -104 c-32 -95 -37 -104 -57
-99 -11 3 -47 11 -78 17 -32 6 -58 17 -58 23 0 20 71 226 78 226 4 0 39 -14
78 -31z m298 -133 l75 -34 -22 -67 c-13 -37 -27 -67 -32 -67 -23 0 -155 25
-155 30 0 9 54 172 57 172 1 0 36 -15 77 -34z m320 -142 c49 -22 56 -29 51
-47 -4 -12 -9 -29 -11 -38 -5 -17 2 -18 -151 16 -21 5 -21 6 -5 56 18 57 19
57 116 13z m-659 -118 c350 -74 639 -136 641 -139 3 -2 -5 -39 -18 -81 l-22
-77 -36 6 c-19 3 -163 33 -320 66 -157 33 -370 78 -475 100 -322 68 -470 100
-473 104 -3 2 22 110 33 143 2 6 11 12 19 12 7 0 300 -60 651 -134z m-469
-238 l64 -11 0 -199 0 -198 -80 0 -80 0 0 173 c0 182 6 247 23 247 5 0 38 -5
73 -12z m327 -69 l57 -12 0 -163 0 -164 -80 0 -80 0 0 181 0 181 23 -6 c12 -3
48 -11 80 -17z m308 -65 l69 -16 0 -129 0 -129 -80 0 -80 0 0 145 c0 95 4 145
11 145 5 0 41 -7 80 -16z m324 -68 c33 -7 59 -17 59 -22 -1 -5 -14 -48 -28
-96 l-27 -88 -49 0 -50 0 0 110 c0 125 -7 118 95 96z"/>
</g>
</svg>
