<?xml version="1.0" encoding="iso-8859-1"?>
<!-- Uploaded to: SVG Repo, www.svgrepo.com, Generator: SVG Repo Mixer Tools -->
<svg fill="#000000" height="800px" width="800px" version="1.1" id="Layer_1" xmlns="http://www.w3.org/2000/svg" xmlns:xlink="http://www.w3.org/1999/xlink" 
	 viewBox="0 0 512 512" xml:space="preserve">
<g>
	<g>
		<g>
			<path d="M116.705,355.459l25.36-32.935l3.636-4.723l5.851-1.118l26.676-5.078l1.63-2.121l24.137-31.347H67.918
				c-10.783,0-20.355-6.917-28.432-20.564c-4.942-8.349-14.535-12.225-23.886-9.676C6.269,250.457,0,258.68,0,268.366v49.131
				l59.685,69.308h32.883l12.069-15.673L116.705,355.459z"/>
			<path d="M512,166.74v-32.277l-90.561-0.052v119.86c-8.422,19.968-23.364,23.343-26.802,23.865H358.4v-71.053
				c0-6.102-1.463-11.88-4.065-16.98c11.515-8.854,19.208-22.433,20.152-37.815h0.109h15.151v-31.347h-15.151V96.919
				c0-18.725-15.235-33.959-33.949-33.959H305.1c-18.714,0-33.949,15.235-33.949,33.959v24.022h-14.106v31.347h14.106h0.109
				c0.863,14.064,7.369,26.623,17.279,35.441c0,0-0.001,0.001-0.001,0.002c-2.267,3.772-3.908,7.983-4.744,12.466v0.01
				l-59.925,77.814l-0.084,0.115l-12.069,15.673h-0.01l-12.058,15.673h-0.01l-12.633,16.405l-32.528,6.196l-17.993,23.374
				l-24.137,31.347l-12.528,16.269l59.705,45.965l47.919-62.234l6.74-8.756l-0.491-6.917l-1.097-15.673h-0.01l-0.731-10.449
				l27.355-35.527l12.069-15.673l12.069-15.673l0.084-0.115l19.738-25.642v25.642v0.052v0.063h-0.042l-12.069,15.673l-12.069,15.673
				l-31.086,40.375l0.397,5.601l1.108,15.673l0.408,5.81l0.418,5.945l-3.02,3.918h157.309c51.221,0,76.507-25.307,88.691-46.529
				c6.447-11.222,9.864-22.298,11.672-30.793H512v-82.829h-59.214v-15.673H512v-28.568h-59.214V166.74H512z M179.942,371.132
				l-26.133,33.949l-10.031-7.722l20.198-26.227l8.067-10.48l9.362-1.787l0.669,9.498L179.942,371.132z M327.053,278.136h-12.539
				v-71.053c0-3.459,2.811-6.269,6.269-6.269s6.269,2.811,6.269,6.269V278.136z M322.873,169.467
				c-10.145,0-18.557-7.461-20.1-17.178h40.199C341.431,162.006,333.018,169.467,322.873,169.467z M343.249,120.942h-40.751V96.919
				h0c0-1.442,1.17-2.612,2.602-2.612h35.547c1.432,0,2.602,1.17,2.602,2.612V120.942z"/>
		</g>
	</g>
</g>
</svg>